<?xml version="1.0" encoding="utf-8"?>
<!-- Generator: Adobe Illustrator 23.0.3, SVG Export Plug-In . SVG Version: 6.00 Build 0)  -->
<svg version="1.1" id="Ebene_1" xmlns="http://www.w3.org/2000/svg" xmlns:xlink="http://www.w3.org/1999/xlink" x="0px" y="0px"
	 viewBox="0 0 1843 1661.9" style="enable-background:new 0 0 1843 1661.9;" xml:space="preserve">
<style type="text/css">
	.st0{fill:#FFFFFF;}
	.st1{fill:#FFCF02;}
	.st2{fill:none;stroke:#FFFFFF;stroke-width:30;stroke-linecap:round;stroke-linejoin:round;stroke-miterlimit:10;}
	.st3{fill:none;stroke:#FFFFFF;stroke-width:60;stroke-linecap:round;stroke-linejoin:round;stroke-miterlimit:10;}
	.st4{fill:#FEEB1D;}
	.st5{opacity:0;}
	.st6{fill:#FFE946;}
	.st7{clip-path:url(#SVGID_2_);fill:#6F9CD3;}
	.st8{clip-path:url(#SVGID_4_);fill:#72C4BB;}
	.st9{clip-path:url(#SVGID_6_);fill:#787BBA;}
	.st10{clip-path:url(#SVGID_8_);fill:#E6DA6E;}
	.st11{clip-path:url(#SVGID_10_);fill:#6F9CD3;}
	.st12{clip-path:url(#SVGID_12_);fill:#72C4BB;}
	.st13{clip-path:url(#SVGID_14_);fill:#787BBA;}
	.st14{clip-path:url(#SVGID_16_);fill:#E6DA6E;}
	.st15{clip-path:url(#SVGID_18_);enable-background:new    ;}
	.st16{clip-path:url(#SVGID_20_);}
	.st17{clip-path:url(#SVGID_22_);}
	.st18{clip-path:url(#SVGID_24_);fill:#787BBA;}
	.st19{clip-path:url(#SVGID_26_);}
	.st20{clip-path:url(#SVGID_28_);fill:#4FB9A4;}
	.st21{clip-path:url(#SVGID_30_);}
	.st22{clip-path:url(#SVGID_32_);fill:#72C4BB;}
	.st23{clip-path:url(#SVGID_34_);}
	.st24{clip-path:url(#SVGID_36_);fill:#4172B7;}
	.st25{clip-path:url(#SVGID_38_);}
	.st26{clip-path:url(#SVGID_40_);fill:#6E9CD3;}
	.st27{clip-path:url(#SVGID_42_);}
	.st28{clip-path:url(#SVGID_44_);fill:#4C53A0;}
	.st29{clip-path:url(#SVGID_46_);}
	.st30{clip-path:url(#SVGID_48_);fill:#E6DA6E;}
	.st31{clip-path:url(#SVGID_50_);}
	.st32{clip-path:url(#SVGID_52_);fill:#CABD4A;}
	.st33{clip-path:url(#SVGID_54_);}
	.st34{clip-path:url(#SVGID_56_);fill:#6E9CD3;}
	.st35{clip-path:url(#SVGID_58_);}
	.st36{clip-path:url(#SVGID_60_);fill:#4172B7;}
	.st37{clip-path:url(#SVGID_62_);}
	.st38{clip-path:url(#SVGID_64_);fill:#72C4BB;}
	.st39{clip-path:url(#SVGID_66_);}
	.st40{clip-path:url(#SVGID_68_);fill:#4FB9A4;}
	.st41{clip-path:url(#SVGID_70_);}
	.st42{clip-path:url(#SVGID_72_);fill:#787BBA;}
	.st43{clip-path:url(#SVGID_74_);}
	.st44{clip-path:url(#SVGID_76_);fill:#4C53A0;}
	.st45{clip-path:url(#SVGID_78_);}
	.st46{clip-path:url(#SVGID_80_);fill:#E6DA6E;}
	.st47{clip-path:url(#SVGID_82_);}
	.st48{clip-path:url(#SVGID_84_);fill:#CABD4A;}
	.st49{clip-path:url(#SVGID_86_);fill:#4C53A0;}
	.st50{clip-path:url(#SVGID_88_);fill:#4C53A0;}
	.st51{clip-path:url(#SVGID_90_);fill:#4171B7;}
	.st52{clip-path:url(#SVGID_92_);fill:#4171B7;}
	.st53{fill:#AA8936;}
	.st54{fill:#2E93AA;}
	.st55{fill:#27738D;}
	.st56{fill:#1CA0AD;}
	.st57{fill:#FFD204;}
	.st58{fill:#FDE351;}
	.st59{fill:#FFD005;}
	.st60{fill:none;stroke:#FFFFFF;stroke-width:90;stroke-linecap:round;stroke-linejoin:round;stroke-miterlimit:10;}
	.st61{fill:#53BDC0;}
	.st62{fill:#71B02C;}
	.st63{fill:#B5D27B;}
	.st64{fill:#F7D900;}
	.st65{fill:#FFF295;}
	.st66{fill:#EC6150;}
	.st67{fill:#ED9593;}
	.st68{fill:url(#SVGID_93_);}
	.st69{fill:#F3A0C5;}
	.st70{fill:#F8A921;}
	.st71{fill:#72B02C;}
	.st72{fill:#25B4B1;}
	.st73{fill:#5A55A1;}
	.st74{fill:#A65A95;}
	.st75{fill:#F4D0E3;}
	.st76{fill:#ED9492;}
	.st77{fill:#FCCB7C;}
	.st78{fill:#B5D27A;}
	.st79{fill:#85CCCF;}
	.st80{fill:#8988C2;}
	.st81{fill:#B27FA7;}
	.st82{fill:#F4B1D0;}
	.st83{fill:#8DC04B;}
	.st84{fill:#F9BE69;}
	.st85{fill:#6364AB;}
	.st86{fill:#B26FA5;}
	.st87{fill:#FFE752;}
	.st88{fill:#EE786E;}
	.st89{fill:#59BEBC;}
	.st90{fill:url(#SVGID_94_);}
	.st91{fill:url(#SVGID_95_);}
	.st92{fill:url(#SVGID_96_);}
	.st93{fill:url(#SVGID_97_);}
	.st94{fill:url(#SVGID_98_);}
	.st95{fill:url(#SVGID_99_);}
	.st96{fill:url(#SVGID_100_);}
	.st97{fill:url(#SVGID_101_);}
	.st98{fill:url(#SVGID_102_);}
	.st99{fill:url(#SVGID_103_);}
	.st100{fill:url(#SVGID_104_);}
	.st101{fill:url(#SVGID_105_);}
	.st102{fill:url(#SVGID_106_);}
	.st103{fill:url(#SVGID_107_);}
	.st104{fill:url(#SVGID_108_);}
	.st105{fill:url(#SVGID_109_);}
	.st106{fill:url(#SVGID_110_);}
	.st107{fill:url(#SVGID_111_);}
	.st108{fill:url(#SVGID_112_);}
	.st109{fill:url(#SVGID_113_);}
	.st110{fill:url(#SVGID_114_);}
	.st111{fill:url(#SVGID_115_);}
	.st112{fill:url(#SVGID_116_);}
	.st113{fill:url(#SVGID_117_);}
	.st114{fill:url(#SVGID_118_);}
	.st115{fill:url(#SVGID_119_);}
	.st116{fill:url(#SVGID_120_);}
	.st117{fill:url(#SVGID_121_);}
	.st118{fill:url(#SVGID_122_);}
	.st119{fill:url(#SVGID_123_);}
	.st120{fill:url(#SVGID_124_);}
	.st121{fill:url(#SVGID_125_);}
	.st122{fill:#BA7AB1;}
	.st123{fill:url(#SVGID_126_);}
	.st124{fill:url(#SVGID_127_);}
	.st125{fill:url(#SVGID_128_);}
	.st126{fill:url(#SVGID_129_);}
	.st127{fill:url(#SVGID_130_);}
	.st128{fill:url(#SVGID_131_);}
	.st129{fill:url(#SVGID_132_);}
	.st130{fill:url(#SVGID_133_);}
	.st131{fill:url(#SVGID_134_);}
	.st132{fill:url(#SVGID_135_);}
	.st133{fill:url(#SVGID_136_);}
	.st134{fill:url(#SVGID_137_);}
	.st135{fill:url(#SVGID_138_);}
	.st136{fill:url(#SVGID_139_);}
	.st137{fill:url(#SVGID_140_);}
	.st138{fill:url(#SVGID_141_);}
	.st139{fill:url(#SVGID_142_);}
	.st140{fill:url(#SVGID_143_);}
	.st141{fill:url(#SVGID_144_);}
	.st142{fill:url(#SVGID_145_);}
	.st143{fill:url(#SVGID_146_);}
	.st144{fill:url(#SVGID_147_);}
	.st145{fill:url(#SVGID_148_);}
	.st146{fill:url(#SVGID_149_);}
	.st147{fill:url(#SVGID_150_);}
	.st148{fill:url(#SVGID_151_);}
	.st149{fill:url(#SVGID_152_);}
	.st150{fill:url(#SVGID_153_);}
	.st151{fill:url(#SVGID_154_);}
	.st152{fill:url(#SVGID_155_);}
	.st153{fill:url(#SVGID_156_);}
	.st154{fill:url(#SVGID_157_);}
	.st155{fill:#FFFFFF;stroke:#18A0AC;stroke-miterlimit:10;}
</style>
<path class="st3" d="M682.5,1196.3c-36.3,38.1-72.6,76.2-109,114.3c69.9,50.4,151.7,85.2,240.4,99.6v-162.5
	C766.7,1238.2,722.4,1220.5,682.5,1196.3z M1371.1,518.8c-38.6,38.4-77.2,76.7-115.8,115.1c19.6,33.7,34.6,70.4,44.1,109.2
	c2.1-0.7,4-1.2,5.4-1.6v-0.3h160.9C1450.3,659.6,1417.4,584.1,1371.1,518.8z M1000.2,426.6h-0.3c-1,3.5-2.4,7.9-4.4,13
	c41.5,10.1,80.6,26.5,116.2,48.1c36.4-38.2,72.8-76.4,109.2-114.5c-65.3-43.5-140.2-73.8-220.7-87.2V426.6z M1304.8,927.5v-0.3
	c-0.7-0.2-1.5-0.4-2.2-0.7c-8.2,39.7-22.2,77.3-40.9,111.9c41.1,39.2,82.3,78.4,123.4,117.6c43.7-67.7,73.4-145.3,85-228.6H1304.8z
	 M1122.4,1189.6c-37.1,24.1-78.2,42.4-122.2,53.7v166.7c88.9-14.8,170.9-50.2,240.8-101.1C1201.5,1269.1,1162,1229.3,1122.4,1189.6z
	 M491.7,927.5h-150c11.8,84.3,42.1,162.8,86.6,231.1l110-109.4C516.8,1012,500.9,971,491.7,927.5z M448,509
	c-50.1,67.5-85.5,146.5-101.8,232.2h149c11.9-47.6,32-91.8,58.7-131.3C518.6,576.4,483.3,542.7,448,509z M814.2,426.6H814v-141
	c-77.1,12.5-149.1,40.5-212.5,80.8c35.5,35.7,70.9,71.4,106.4,107.1c33.9-17.4,70.6-30.4,109.1-37.9
	C815.8,431.9,814.8,428.9,814.2,426.6z"/>
<g>
	<path class="st3" d="M999.9,155c-14.1-20.7-50.3-35.4-92.8-35.4c-42.5,0-78.7,14.7-92.8,35.4H814v271.6h0.3
		c0.6,2.2,1.5,5.3,2.8,8.9c0.3,1,0.7,2,1.1,3c10.4,28.2,42.8,89.4,89,89.3c52.6-0.2,85.2-79.9,88-87c0.2-0.5,0.3-0.9,0.5-1.3
		c2-5.1,3.4-9.5,4.4-13h0.3V155H999.9z M905.4,489.5c-15.2,0-27.5-12.3-27.5-27.5c0-15.2,12.3-27.5,27.5-27.5s27.5,12.3,27.5,27.5
		C932.9,477.2,920.6,489.5,905.4,489.5z"/>
</g>
<g>
	<path class="st3" d="M1000,1225.4c-0.8-2.8-2-7-3.8-12c-10.4-28.2-42.8-89.4-89-89.3c-52.6,0.2-85.2,79.9-88,87
		c-2.2,5.6-3.8,10.5-4.8,14.3H814V1497h0.3c14.1,20.7,50.3,35.4,92.8,35.4c42.5,0,78.7-14.7,92.8-35.4h0.3v-271.6H1000z
		 M908.8,1162.6c15.2,0,27.5,12.3,27.5,27.5c0,15.2-12.3,27.5-27.5,27.5c-15.2,0-27.5-12.3-27.5-27.5
		C881.3,1174.8,893.6,1162.6,908.8,1162.6z"/>
</g>
<g>
	<path class="st3" d="M1576.4,741.6v-0.3h-271.5v0.3c-1.5,0.4-3.3,0.9-5.4,1.6c-2,0.6-4.2,1.4-6.5,2.2c-28.2,10.4-89.4,42.8-89.3,89
		c0.2,52.6,79.9,85.2,87,88c4.6,1.8,8.7,3.2,12.1,4.2c0.8,0.3,1.5,0.5,2.2,0.7v0.3h271.5v-0.3c20.7-14.1,35.4-50.3,35.4-92.8
		C1611.8,791.9,1597.1,755.7,1576.4,741.6z M1269.4,860.2c-15.2,0-27.5-12.3-27.5-27.5c0-15.2,12.3-27.5,27.5-27.5
		c15.2,0,27.5,12.3,27.5,27.5C1296.9,847.9,1284.6,860.2,1269.4,860.2z"/>
</g>
<g>
	<path class="st3" d="M520.3,746.4c-5.6-2.2-10.5-3.8-14.3-4.8v-0.3H234.5v0.3c-20.7,14.1-35.4,50.3-35.4,92.8
		c0,42.5,14.7,78.7,35.4,92.8v0.3H506v-0.3c2.8-0.8,7-2,12-3.8c28.2-10.4,89.5-42.8,89.3-89C607.1,781.8,527.4,749.2,520.3,746.4z
		 M541.4,863.5c-15.2,0-27.5-12.3-27.5-27.5c0-15.2,12.3-27.5,27.5-27.5c15.2,0,27.5,12.3,27.5,27.5
		C568.9,851.2,556.6,863.5,541.4,863.5z"/>
</g>
<path class="st3" d="M707.9,473.4c-62.1,31.9-115,79.1-153.9,136.6c-35.3-33.6-70.6-67.3-105.9-101c-28.5-27.2-57-54.4-85.5-81.5
	c-2.7-15.4-5.6-46.2,9.7-77.6c23.1-47.3,78.1-76,139.8-73.5c29.8,30,59.6,60,89.4,90C636.9,402,672.4,437.8,707.9,473.4z"/>
<path class="st3" d="M1449.4,1304.3c-23.1,47.3-78.1,76-139.8,73.5c-22.9-23-45.7-46-68.6-69c-39.5-39.8-79-79.5-118.5-119.3
	c58.1-37.8,106.2-89.8,139.3-151c41.1,39.2,82.3,78.4,123.4,117.6c24.6,23.5,49.3,47,74,70.5
	C1461.8,1242.1,1464.8,1272.9,1449.4,1304.3z"/>
<path class="st3" d="M1460.5,429.9c-29.8,29.6-59.6,59.3-89.4,88.9c-38.6,38.4-77.2,76.7-115.8,115.1
	c-34.9-59.9-84.3-110.3-143.5-146.2c36.4-38.2,72.8-76.4,109.2-114.5c29.5-30.9,59-61.9,88.4-92.8c15.4-2.7,46.2-5.6,77.6,9.7
	C1434.3,313.2,1463,368.2,1460.5,429.9z"/>
<path class="st3" d="M682.5,1196.3c-36.3,38.1-72.6,76.2-109,114.3c-21.1,22.1-42.2,44.3-63.3,66.4c-15.4,2.7-46.3,5.6-77.6-9.7
	c-47.3-23.1-76-78.1-73.5-139.8c23.1-23,46.2-45.9,69.3-68.9l110-109.4C573.3,1109.5,623,1160.2,682.5,1196.3z"/>
<path class="st66" d="M1460.5,430.4c-0.6,0.6-1.2,1.2-1.8,1.8c-3.4,3.4-6.7,6.7-10.1,10h-146.4V288.4c2.4-2.5,4.8-5,7.2-7.5
	c0.9-0.2,1.9-0.3,2.9-0.5c9.8-1.5,24.3-2.8,40.7-0.3c4.7,0.7,9.6,1.7,14.5,3.1c6.4,1.8,12.9,4.2,19.5,7.4c0.4,0.2,0.9,0.4,1.3,0.7
	c3.9,1.9,7.7,4.1,11.3,6.5c7.7,5,14.7,10.9,21,17.6h0c4.6,1.8,8,5.7,9,10.6c0,0,0,0,0,0c5.5,7.1,10.2,14.9,14.3,23.1
	c1.9,3.8,3.6,7.7,5.2,11.7c2.6,6.6,4.8,13.6,6.5,20.7c1.1,4.6,2.1,9.2,2.8,14C1460.3,406.8,1461,418.5,1460.5,430.4z"/>
<path class="st64" d="M1294.3,982.2v226.6h-203.9c6.1-3.2,12.1-6.6,18-10.1c4.6-2.7,9.1-5.5,13.5-8.4c0.2-0.1,0.3-0.2,0.5-0.3
	c14.9-9.7,29.1-20.3,42.6-31.7v0c3-2.6,6-5.2,9-7.9c4.8-4.3,9.5-8.7,14.1-13.2c11.1-10.9,21.5-22.5,31.3-34.6
	c3.7-4.6,7.3-9.3,10.8-14c1.9-2.5,3.8-5.1,5.5-7.7c3.4-4.8,6.6-9.6,9.8-14.5c5.7-8.9,11.2-18,16.2-27.4c0.4-0.7,0.8-1.4,1.1-2.1v0
	c2.7-5.1,5.4-10.3,7.9-15.6c4.6-9.4,8.7-19.1,12.5-28.9c1.3-3.3,2.6-6.7,3.8-10.1H1294.3z"/>
<path class="st69" d="M1022,290.5v40.3H795.4v-41.4c3.4-0.7,6.7-1.3,10.1-1.9c2.8-0.5,5.6-1,8.4-1.5V155.5h0.3
	c14.1-20.7,50.3-35.4,92.8-35.4c42.5,0,78.7,14.7,92.8,35.4h0.3v130.9c3.9,0.7,7.9,1.4,11.8,2.1
	C1015.3,289.2,1018.6,289.8,1022,290.5z"/>
<path class="st72" d="M517.9,1009.4v198.9h-139c3.4-3.4,6.7-6.7,10.1-10.1c11.8-11.8,23.7-23.6,35.5-35.3c1.3-1.3,2.5-2.5,3.8-3.8
	c-0.6-1-1.3-1.9-1.9-2.9c-8.4-13-16.2-26.4-23.5-40.1c-1.2-2.2-2.4-4.4-3.5-6.7c-6.8-13.1-13.1-26.4-18.8-40.1
	c-0.9-2.2-1.9-4.4-2.8-6.7c-5.3-13.1-10.2-26.5-14.5-40.1c-0.7-2.2-1.4-4.4-2.1-6.7c-2.4-7.9-4.7-16-6.8-24
	c-0.9-3.4-1.7-6.7-2.5-10.1h154.9C510.2,991.1,513.9,1000.3,517.9,1009.4z"/>
<path class="st69" d="M795.4,337.3v103.5c3.4-0.9,6.7-1.7,10.1-2.4c3.8-0.9,7.6-1.7,11.5-2.4c0.3,1,0.7,2,1.1,3
	c3.2,8.7,8.6,20.7,15.8,33c2.6,4.4,5.4,8.8,8.5,13.2c0,0,0,0,0,0c8.5,12.2,18.9,23.7,30.7,31.8c4.9,3.3,10.1,6.1,15.5,8
	c5.9,2.1,12.1,3.3,18.6,3.3c7.1,0,13.8-1.5,20.1-4c4.8-1.9,9.4-4.5,13.8-7.5h0c13.6-9.4,24.8-23.1,33.6-36.4
	c2.7-4.2,5.2-8.3,7.4-12.2c7.6-13.4,12.1-24.5,13.1-26.9c0.2-0.5,0.3-0.9,0.5-1.3c5.5,1.3,11,2.8,16.4,4.4c3.4,1,6.7,2,10.1,3.1
	V337.3H795.4z M877.9,462.5c0-2.2,0.3-4.4,0.8-6.5v0c3-12,13.8-20.9,26.7-20.9c15.2,0,27.5,12.3,27.5,27.5c0,3.3-0.6,6.5-1.7,9.4v0
	c0,0-0.1,0.1-0.1,0.1c-3.8,10.5-13.9,17.9-25.7,17.9C890.2,489.9,877.9,477.6,877.9,462.5z"/>
<path class="st64" d="M1294.3,1213.4v149.5c-3.4-3.4-6.7-6.7-10.1-10.1c-6.3-6.4-12.6-12.7-19-19.1c-4.6-4.7-9.3-9.4-14-14.1
	c-2.7-2.8-5.5-5.5-8.2-8.3c-1.9,0.3-3.8,0.5-5.8,0.6c-3.6,2.6-7.3,5.2-11,7.7c-7.1,4.8-14.3,9.5-21.7,14.1
	c-5.4,3.4-10.9,6.6-16.5,9.8c-4.6,2.7-9.3,5.3-14.1,7.8c-5.1,2.7-10.2,5.3-15.3,7.9c-3.9,1.9-7.8,3.8-11.8,5.7
	c-15.6,7.3-31.6,13.9-47.9,19.7v0c-4.1,1.5-8.2,2.9-12.4,4.3c-2.9,1-5.9,1.9-8.8,2.9c-3.3,1.1-6.7,2.1-10.1,3.1v-174.9
	c4.6-2.1,9.2-4.3,13.7-6.5H1294.3z"/>
<path class="st64" d="M1459.8,982.2c-0.8,3.4-1.6,6.7-2.5,10.1c-1,3.7-2,7.5-3,11.2c-1.7,6.2-3.6,12.3-5.5,18.4
	c-2.4,7.6-5,15.1-7.7,22.5c0,0,0,0,0,0.1v0c-2.2,6-4.5,11.9-6.9,17.8c-3.6,8.9-7.4,17.6-11.4,26.3c-5.3,11.4-11,22.6-17,33.6
	c-3.2,5.8-6.5,11.6-9.9,17.3c-3.5,5.8-7,11.6-10.7,17.3c3.1,3,6.3,6,9.4,9c3.7,3.6,7.4,7.1,11.2,10.6c4.7,4.5,9.4,8.9,14,13.4
	c3.2,3,6.4,6.1,9.6,9.1c3.5,3.4,7,6.7,10.6,10.1h-140.4V982.2H1459.8z"/>
<path class="st64" d="M1453.5,1295c-1.2,3.2-2.6,6.5-4.2,9.7c-0.3,0.7-0.7,1.4-1.1,2.1c-2.2,4.4-4.8,8.7-7.7,12.8
	c-3.4,5-7.2,9.6-11.4,14c-2.9,3.2-6.1,6.2-9.4,9c-4.4,3.8-9.1,7.3-14,10.6c-4.4,2.9-9.1,5.6-13.9,8c-3.8,1.9-7.8,3.7-11.8,5.3
	c-15.1,6.1-31.7,9.9-49.1,11.2c-4.3,0.4-8.6,0.5-13,0.5c-2.8,0.1-5.5,0-8.4-0.1l0,0c-3.4-3.4-6.7-6.7-10-10.1v-154.7h145.2
	c3.5,3.4,7,6.7,10.6,10c1.3,1.3,2.6,2.5,3.9,3.7c0.3,1.8,0.6,3.7,0.9,5.9c0.5,3.8,0.9,8.1,1.1,12.9
	C1461.7,1259.6,1460.4,1277,1453.5,1295z"/>
<path class="st74" d="M518.1,283v158.3H376.4c-3.5-3.4-7-6.7-10.6-10.1c-1.1-1.1-2.3-2.2-3.4-3.3c-2.7-15.4-5.6-46.2,9.7-77.6
	c2.6-5.3,5.6-10.4,9-15.3c3.5-5,7.3-9.6,11.6-14.1c1.7-1.8,3.5-3.6,5.3-5.3c4.4-4.1,9-7.9,14-11.4c26.1-18.3,59.9-28.4,96.2-27.7
	c1.2,0,2.5,0.1,3.7,0.1C514,278.9,516,280.9,518.1,283z"/>
<path class="st74" d="M381.2,445.9c3.5,3.4,7,6.7,10.6,10.1h6.1v5.8c4.7,4.4,9.4,8.9,14,13.4v-19.2H508v96.2h-88.8
	c-7.6,12.5-14.8,25.3-21.4,38.4v71.9h-30.5c-1.2,3.3-2.3,6.7-3.4,10.1h154.2V445.9H381.2z M508,662.4h-96.2v-96.2H508V662.4z"/>
<path class="st74" d="M749.8,300.3v141H523.3V288.2c3.4,3.5,6.9,6.9,10.3,10.4c7.5,7.5,14.9,14.9,22.3,22.4c4.6,4.7,9.3,9.4,14,14.1
	c10.5,10.6,21,21.2,31.6,31.8c9.3-5.9,18.7-11.5,28.4-16.9c4.6-2.6,9.3-5.1,14-7.5c4.9-2.5,9.8-5,14.7-7.3
	c10.3-5,20.9-9.7,31.5-14.1c16.3-6.7,33-12.6,50-17.8C743.3,302.2,746.6,301.3,749.8,300.3z"/>
<path class="st74" d="M749.8,445.8v9.4c-3.4,1.3-6.7,2.6-10.1,4c-10.9,4.5-21.5,9.4-31.9,14.7c-22.7,11.7-44.2,25.4-64.3,41
	c-4.8,3.7-9.4,7.5-14,11.4c-9.7,8.2-19,16.8-27.9,25.9c-4.5,4.6-8.9,9.3-13.2,14.1c-12.5,13.9-24,28.7-34.6,44.3
	c-7.4,10.9-14.3,22.2-20.6,33.8c-3.6,6.4-6.9,13-10,19.6v-218H749.8z"/>
<g>
	<g class="st5">
		<path d="M1451.3,676.9H1305V450.3h141.1c-3.4,3.4-6.7,6.7-10.1,10.1c-8.1,8.1-16.2,16.1-24.3,24.2c-5.8,5.7-11.5,11.5-17.3,17.2h0
			c-6.8,6.8-13.6,13.6-20.5,20.3c2.8,4,5.6,8.1,8.4,12.2c2.3,3.4,4.5,6.8,6.7,10.3c11.2,17.4,21.4,35.4,30.6,54
			c1.8,3.6,3.6,7.3,5.3,11c2.9,6.1,5.7,12.4,8.3,18.7c1.7,4,3.4,8.1,5,12.2c3.4,8.7,6.7,17.5,9.7,26.4
			C1449.1,670.2,1450.2,673.5,1451.3,676.9z"/>
	</g>
	<g>
		<path class="st66" d="M1448.5,674.1h-146.3V447.5h141.1c-3.4,3.4-6.7,6.7-10.1,10.1c-8.1,8.1-16.2,16.1-24.3,24.2
			c-5.8,5.7-11.5,11.5-17.3,17.2h0c-6.8,6.8-13.6,13.6-20.5,20.3c2.8,4,5.6,8.1,8.4,12.2c2.3,3.4,4.5,6.8,6.7,10.3
			c11.2,17.4,21.4,35.4,30.6,54c1.8,3.6,3.6,7.3,5.3,11c2.9,6.1,5.7,12.4,8.3,18.7c1.7,4,3.4,8.1,5,12.2c3.4,8.7,6.7,17.5,9.7,26.4
			C1446.3,667.3,1447.4,670.7,1448.5,674.1z"/>
	</g>
</g>
<g>
	<g class="st5">
		<path d="M1299.5,296.9V445H1073V305.6c3.4,1,6.7,2,10,3.1c8.5,2.7,16.9,5.6,25.2,8.8c4.2,1.5,8.3,3.1,12.4,4.8
			c6.5,2.6,12.8,5.3,19.2,8.1c3.9,1.7,7.8,3.5,11.6,5.3c17.4,8.2,34.4,17.3,50.8,27.2c3.6,2.2,7.3,4.5,10.9,6.7
			c3.6,2.2,7.1,4.5,10.6,6.9c8.9-9.3,17.8-18.7,26.7-28v0c5.1-5.3,10.1-10.6,15.1-15.9v0c8-8.4,15.9-16.7,23.9-25.1
			C1292.9,303.9,1296.2,300.4,1299.5,296.9z"/>
	</g>
	<g>
		<path class="st66" d="M1296.7,294.1v148.1h-226.5V302.7c3.4,1,6.7,2,10,3.1c8.5,2.7,16.9,5.6,25.2,8.8c4.2,1.5,8.3,3.1,12.4,4.8
			c6.5,2.6,12.8,5.3,19.2,8.1c3.9,1.7,7.8,3.5,11.6,5.3c17.4,8.2,34.4,17.3,50.8,27.2c3.6,2.2,7.3,4.5,10.9,6.7
			c3.6,2.2,7.1,4.5,10.6,6.9c8.9-9.3,17.8-18.7,26.7-28v0c5.1-5.3,10.1-10.6,15.1-15.9v0c8-8.4,15.9-16.7,23.9-25.1
			C1290,301.1,1293.3,297.6,1296.7,294.1z"/>
	</g>
</g>
<path class="st66" d="M1296.7,447.5v226.6h-21.1c-1.5-3.4-3-6.7-4.7-10.1c-4.8-10.1-10-20-15.7-29.6c-4.1-7-8.3-13.9-12.8-20.6
	c-2.5-3.7-5-7.4-7.7-11.1c-4-5.6-8.1-11.2-12.4-16.6c-2.5-3.2-5.1-6.3-7.7-9.5c-5.5-6.6-11.2-13-17.1-19.2
	c-3.4-3.6-6.9-7.2-10.5-10.7c-6.1-6-12.4-11.8-18.9-17.4c-3.1-2.7-6.2-5.3-9.4-7.9c-5.3-4.4-10.8-8.6-16.4-12.7
	c-3.6-2.7-7.3-5.3-11-7.8c-6.4-4.4-13-8.7-19.7-12.7c-10.2-6.2-20.7-12-31.5-17.3c-3.3-1.7-6.7-3.3-10-4.8v-18.6H1296.7z"/>
<path class="st72" d="M702.7,1208.2H523.3v-187c3.2,6.6,6.5,13.2,10.1,19.6c1.6,3,3.3,5.9,5,8.9c2.5,4.4,5.1,8.6,7.8,12.9
	c1.4,2.2,2.8,4.5,4.3,6.7c9.2,14,19.2,27.4,29.9,40.1c1.9,2.2,3.8,4.5,5.8,6.7c12.5,14.3,26.1,27.7,40.5,40.1
	c2.6,2.3,5.3,4.5,7.9,6.7c15.1,12.4,31.1,23.7,47.9,33.9c0.8,0.5,1.6,1,2.4,1.4C690.7,1201.7,696.6,1205.1,702.7,1208.2z"/>
<path class="st72" d="M518,1213.9v155.3c-2.6,2.7-5.2,5.5-7.8,8.2c-0.7,0.1-1.5,0.3-2.2,0.4c-16,2.6-45.5,4.6-75.4-10.1
	c-10.3-5-19.7-11.6-28.2-19.5c-2.3-2.1-4.6-4.4-6.7-6.7c-10.6-11.4-19.3-25-25.7-40.1c-0.9-2.2-1.8-4.4-2.6-6.7
	c-4.7-12.5-7.9-26-9.4-40.1c-0.3-2.2-0.5-4.4-0.6-6.7c-0.5-6.6-0.6-13.3-0.3-20.1c1.3-1.3,2.6-2.6,4-3.9c3.4-3.4,6.7-6.7,10.1-10.1
	H518z"/>
<path class="st72" d="M750,1229.7v166.8c-8.8-2.5-17.5-5.2-26.1-8.1c-31.8-10.7-62.4-24.2-91.4-40.1c-4-2.2-8-4.4-11.9-6.7
	c-16.2-9.4-32-19.6-47.1-30.5c-9.7,10.2-19.4,20.3-29.1,30.5c-2.1,2.2-4.2,4.5-6.4,6.7c-1.5,1.6-3,3.1-4.5,4.7
	c-3.3,3.5-6.7,7.1-10.1,10.6v-149.7h190.3c7.2,3.6,14.5,6.9,22,10.1c1.4,0.6,2.8,1.2,4.2,1.8C743.3,1227.2,746.6,1228.5,750,1229.7z
	"/>
<path class="st71" d="M1048.9,1332.5c0.4,0.5,0.9,1.1,1.3,1.7c-0.3,0.5-0.8,0.9-1.3,1.3v64.6c-2.6,0.7-5.2,1.3-7.8,2
	c-4,1-8.1,1.9-12.2,2.8c-2.2,0.5-4.5,1-6.8,1.5c0,0.1,0.1,0.2,0.1,0.3c-0.5,0.1-1.1,0.1-1.6,0.1c-1.7,0.4-3.4,0.7-5.1,1
	c-3.2,0.6-6.4,1.2-9.7,1.8l-5.7-9.9l-18.7-32.3l18.7-32.4l48.8-84.5v51.9c0.5,0.4,0.9,0.9,1.3,1.3c-0.5,0.1-0.9,0.3-1.3,0.5V1332.5z
	"/>
<path class="st71" d="M830,1369.7l-16.1,27.9l-6.9,12c-1.7-0.3-3.3-0.6-5-0.9c-1.9-0.3-3.9-0.7-5.8-1.1c-0.9-0.2-1.9-0.4-2.8-0.6
	c-1.1-0.2-2.2-0.4-3.2-0.7c-0.9-0.2-1.8-0.4-2.7-0.6c-2-0.4-4.1-0.9-6.1-1.3c-6.7-1.5-13.4-3.1-20-4.8c-1.5-0.4-2.9-0.8-4.4-1.2
	c-1.1-0.3-2.3-0.6-3.4-1v-58.5c0-0.1-0.1-0.1-0.1-0.2c0-0.1,0-0.2,0.1-0.3v-94.8h3.8l56.7,98.1L830,1369.7z"/>
<path class="st71" d="M1048.9,1238.7l-5.2-8.8c-2.2,0.9-4.4,1.7-6.7,2.4c-4.3,1.6-8.6,3-13,4.4c-1.8,0.6-3.6,1.2-5.4,1.7
	c-5.5,1.7-11.1,3.3-16.7,4.7c-0.6,0.2-1.3,0.3-1.9,0.5v-17.8h-0.3c-0.6-2-1.3-4.6-2.4-7.8c-0.5-1.3-0.9-2.7-1.5-4.2
	c-0.1-0.4-0.3-0.9-0.5-1.3c-0.5-1.4-1.1-2.9-1.7-4.4c-1-2.5-2.2-5.2-3.5-8c-5.6-12.1-13.6-26.5-23.6-39.4c-1.6-2-3.2-4.1-5-6
	c-14.7-17-33.2-30.2-54.7-30.1c-3.2,0-6.3,0.3-9.3,0.9c-5.2,0.9-10.2,2.7-14.9,5c-4.2,2-8.2,4.5-12.1,7.4c-1.9,1.4-3.7,2.8-5.4,4.4
	c-5.2,4.4-9.9,9.4-14.2,14.7c-3.5,4.2-6.7,8.5-9.6,12.7c-0.9,1.3-1.8,2.6-2.6,4c-0.6,0.9-1.3,1.9-1.8,2.8
	c-5.7,9.2-10.2,17.9-13.3,24.4c-1.4,3-2.5,5.6-3.4,7.5c-0.7,1.6-1.1,2.7-1.3,3.3c-0.3,0.7-0.5,1.3-0.7,1.9c-0.3,0.8-0.6,1.5-0.9,2.3
	c-0.9,2.6-1.7,5.1-2.4,7.2c-0.3,0.9-0.5,1.8-0.8,2.6c0,0.1-0.1,0.2-0.1,0.3h-0.3v22.4c-5.9-1.2-11.8-2.5-17.6-4
	c-9.7-2.4-19.3-5.2-28.8-8.3c-1.5-0.5-3-1-4.6-1.5h0l-4.3,7.6l55.3,94.2l18.4,31.3l145.6-1l22.3-39.3l48.8-85.8l0.8-1.4
	L1048.9,1238.7z M928.1,1171c1.5,1.5,2.9,3.2,4,5.1c0.5,0.8,1,1.6,1.4,2.4c1.5,3.1,2.4,6.5,2.6,10.1c0,0.6,0.1,1.2,0.1,1.8
	c0,7.1-2.7,13.6-7.1,18.5c0,0,0,0-0.1,0.1c-2.8,3.1-6.4,5.6-10.4,7.1c-1.2,0.5-2.5,0.9-3.8,1.2c-1.8,0.4-3.7,0.7-5.6,0.7h-0.5
	c-1.1,0-2.1-0.1-3.1-0.2c-1.2-0.1-2.4-0.3-3.5-0.6c-1.5-0.4-2.9-0.8-4.3-1.4c-1.7-0.7-3.3-1.6-4.8-2.7c-1-0.7-2-1.5-3-2.4
	c-1-0.9-1.9-1.9-2.8-3c-1.1-1.4-2.1-2.8-2.9-4.4c-2-3.8-3.2-8.2-3.2-12.8c0-1.6,0.1-3.2,0.4-4.8c0-0.1,0-0.2,0.1-0.3
	c1.3-7.1,5.3-13.2,10.9-17.2c4.5-3.3,10-5.2,16.1-5.2c4.5,0,8.8,1.1,12.5,3C923.8,1167.3,926.1,1169,928.1,1171z"/>
<path class="st71" d="M1002,1410c-0.6,0.1-1.2,0.2-1.8,0.3v87.1h-0.3c-1.5,2.2-3.3,4.4-5.4,6.5c0,0,0,0,0,0
	c-5.3,5.5-12.3,10.4-20.5,14.5c-0.4,0.2-0.8,0.4-1.2,0.6c-2.6,1.3-5.4,2.5-8.3,3.6c-2.6,1-5.2,1.9-7.9,2.8c-1.2,0.4-2.4,0.7-3.6,1.1
	c-0.6,0.2-1.2,0.3-1.8,0.5c-1.5,0.4-3,0.8-4.5,1.1c-8.2,2-16.9,3.4-26,4c-1.8,0.1-3.7,0.3-5.6,0.3c-1.5,0.1-2.9,0.1-4.4,0.1
	c-1.1,0.1-2.3,0.1-3.5,0.1h-0.1c-1.6,0-3.1,0-4.7-0.1c-2.8-0.1-5.5-0.2-8.2-0.4c-1.3-0.1-2.6-0.2-3.9-0.3c-1.3-0.1-2.7-0.3-4-0.4
	c0,0,0,0,0,0c-1.4-0.1-2.7-0.3-4-0.5c-5.1-0.7-10.1-1.7-14.9-2.8c-8.1-1.9-15.6-4.4-22.3-7.4c-5.6-2.5-10.6-5.3-15.1-8.3
	c-4.7-3.2-8.7-6.6-11.9-10.3c-0.9-0.9-1.6-1.9-2.4-2.8c-0.5-0.6-0.9-1.3-1.4-1.9h-0.3v-86.7c-1.3-0.2-2.6-0.4-3.8-0.7l3.8-6.7
	l19.2-33.4l145.5-0.2l21.5,37.2L1002,1410z"/>
<g>
	<g class="st5">
		<path d="M416.1,726.1v226.6h-68c-0.6-3.3-1.2-6.7-1.7-10.1c-0.7-3.9-1.3-7.8-1.8-11.8H237.3v-0.3c-20.7-14.1-35.4-50.3-35.4-92.8
			c0-42.5,14.7-78.7,35.4-92.8v-0.3H349c0.5-2.8,1.1-5.6,1.7-8.4c0.7-3.4,1.4-6.7,2.2-10.1H416.1z"/>
	</g>
	<g>
		<path class="st73" d="M413.2,723.2v226.6h-68c-0.6-3.3-1.2-6.7-1.7-10.1c-0.7-3.9-1.3-7.8-1.8-11.8H234.4v-0.3
			c-20.7-14.1-35.4-50.3-35.4-92.8c0-42.5,14.7-78.7,35.4-92.8v-0.3h111.7c0.5-2.8,1.1-5.6,1.7-8.4c0.7-3.4,1.4-6.7,2.2-10.1H413.2z
			"/>
	</g>
</g>
<g>
	<g class="st5">
		<path d="M603,811c-2.2-4.2-4.8-8.1-7.8-11.8c-6.1-7.7-13.5-14.7-21.3-20.7c-3.8-2.9-7.6-5.6-11.4-8.2
			c-18.6-12.2-36.2-19.4-39.4-20.7c-5.6-2.2-10.5-3.8-14.3-4.8v-0.3H498c0.7-2.8,1.5-5.6,2.2-8.4c0.9-3.4,1.9-6.7,2.9-10.1h-81.8
			v226.6h78.5c-0.9-3.3-1.8-6.7-2.6-10.1c-1-3.9-1.9-7.8-2.7-11.8h14.3v-0.3c2.8-0.8,7-2,12-3.8c10.4-3.8,25.4-10.7,40-20.1
			c3.8-2.4,7.6-5,11.3-7.9c8.1-6.1,15.7-13,21.9-20.6c3-3.6,5.6-7.4,7.9-11.4c5.1-8.9,8.2-18.6,8.2-29
			C610,828.1,607.4,819.2,603,811z M567.9,825.5c2.4,4.1,3.8,8.8,3.8,13.9c0,7.4-2.9,14-7.6,19c-2,2.1-4.3,3.9-6.9,5.3
			c-3.8,2.1-8.3,3.2-12.9,3.2c-15.2,0-27.5-12.3-27.5-27.5c0-15.2,12.3-27.5,27.5-27.5c3,0,5.9,0.5,8.7,1.4
			C559.3,815.4,564.6,819.8,567.9,825.5z"/>
	</g>
	<g>
		<g>
			<path class="st73" d="M600.1,808.2c-2.2-4.2-4.8-8.1-7.8-11.8c-6.1-7.7-13.5-14.7-21.3-20.7c-3.8-2.9-7.6-5.6-11.4-8.2
				c-18.6-12.2-36.2-19.4-39.4-20.7c-5.6-2.2-10.5-3.8-14.3-4.8v-0.3h-10.8c0.7-2.8,1.5-5.6,2.2-8.4c0.9-3.4,1.9-6.7,2.9-10.1h-81.8
				v226.6h78.5c-0.9-3.3-1.8-6.7-2.6-10.1c-1-3.9-1.9-7.8-2.7-11.8H506v-0.3c2.8-0.8,7-2,12-3.8c10.4-3.8,25.4-10.7,40-20.1
				c3.8-2.4,7.6-5,11.3-7.9c8.1-6.1,15.7-13,21.9-20.6c3-3.6,5.6-7.4,7.9-11.4c5.1-8.9,8.2-18.6,8.2-29
				C607.2,825.3,604.5,816.4,600.1,808.2z M565.1,822.7c2.4,4.1,3.8,8.8,3.8,13.9c0,7.4-2.9,14-7.6,19c-2,2.1-4.3,3.9-6.9,5.3
				c-3.8,2.1-8.3,3.2-12.9,3.2c-15.2,0-27.5-12.3-27.5-27.5c0-15.2,12.3-27.5,27.5-27.5c3,0,5.9,0.5,8.7,1.4
				C556.4,812.6,561.8,817,565.1,822.7z"/>
		</g>
	</g>
</g>
<g>
	<g class="st5">
		<path d="M1295.6,722.7c1.1,3.3,2,6.7,3,10.1c1.3,4.5,2.5,9,3.6,13.6c-2,0.6-4.2,1.4-6.5,2.2c-8.3,3.1-19.5,8.1-31.2,14.8
			c-5.7,3.3-11.5,6.9-17.1,11c-11.1,8-21.5,17.6-29.1,28.4c-4,5.8-7.3,12-9.3,18.5c-1.7,5.2-2.6,10.7-2.5,16.3
			c0,6.8,1.4,13.2,3.7,19.3c2.4,6.3,5.8,12.2,10,17.7c7.5,9.9,17.2,18.5,27.1,25.7c4.8,3.4,9.6,6.6,14.3,9.4
			c15.6,9.4,29.1,14.9,31.9,16c4.6,1.8,8.7,3.2,12.1,4.2c-0.7,3.1-1.3,6.3-2,9.4c-0.8,3.4-1.6,6.7-2.5,10.1h93.9V722.7H1295.6z
			 M1272.2,863.5c-1.8,0-3.6-0.2-5.3-0.5c-5.7-1.1-10.7-3.9-14.5-7.9c-4.8-4.9-7.7-11.6-7.7-19c0-8,3.4-15.2,8.9-20.2
			c4-3.7,9.2-6.3,14.9-7c1.2-0.2,2.4-0.3,3.7-0.3c4.5,0,8.7,1.1,12.5,3c4.6,2.3,8.4,5.9,11,10.3c1,1.6,1.8,3.3,2.4,5.1
			c1,2.8,1.6,5.9,1.6,9.1c0,3.6-0.7,7-2,10.2c-1.1,2.8-2.7,5.4-4.6,7.6c-1.9,2.2-4.1,4.1-6.6,5.6
			C1282.4,862,1277.5,863.5,1272.2,863.5z"/>
	</g>
	<g>
		<g>
			<path class="st70" d="M1292.8,719.9c1.1,3.3,2,6.7,3,10.1c1.3,4.5,2.5,9,3.6,13.6c-2,0.6-4.2,1.4-6.5,2.2
				c-8.3,3.1-19.5,8.1-31.2,14.8c-5.7,3.3-11.5,6.9-17.1,11c-11.1,8-21.5,17.6-29.1,28.4c-4,5.8-7.3,12-9.3,18.5
				c-1.7,5.2-2.6,10.7-2.5,16.3c0,6.8,1.4,13.2,3.7,19.3c2.4,6.3,5.8,12.2,10,17.7c7.5,9.9,17.2,18.5,27.1,25.7
				c4.8,3.4,9.6,6.6,14.3,9.4c15.6,9.4,29.1,14.9,31.9,16c4.6,1.8,8.7,3.2,12.1,4.2c-0.7,3.1-1.3,6.3-2,9.4
				c-0.8,3.4-1.6,6.7-2.5,10.1h93.9V719.9H1292.8z M1269.4,860.7c-1.8,0-3.6-0.2-5.3-0.5c-5.7-1.1-10.7-3.9-14.5-7.9
				c-4.8-4.9-7.7-11.6-7.7-19c0-8,3.4-15.2,8.9-20.2c4-3.7,9.2-6.3,14.9-7c1.2-0.2,2.4-0.3,3.7-0.3c4.5,0,8.7,1.1,12.5,3
				c4.6,2.3,8.4,5.9,11,10.3c1,1.6,1.8,3.3,2.4,5.1c1,2.8,1.6,5.9,1.6,9.1c0,3.6-0.7,7-2,10.2c-1.1,2.8-2.7,5.4-4.6,7.6
				c-1.9,2.2-4.1,4.1-6.6,5.6C1279.5,859.2,1274.6,860.7,1269.4,860.7z"/>
		</g>
	</g>
</g>
<g>
	<g class="st5">
		<path d="M1614.6,837.7c0,27.5-6.1,52.3-16.1,70.3c-0.6,1.1-1.3,2.3-1.9,3.4c-1.7,2.8-3.6,5.4-5.5,7.8c-0.5,0.6-1,1.2-1.5,1.8
			c-3.3,3.8-6.7,7.1-10.4,9.6v0.3H1473c-0.4,2.8-0.8,5.6-1.3,8.4c-0.5,3.4-1.1,6.7-1.7,10.1H1400V722.7h64c0.8,3.3,1.5,6.7,2.2,10.1
			c0.8,3.9,1.6,7.8,2.4,11.8h110.6v0.3c2.6,1.7,5,3.8,7.4,6.2c0.7,0.7,1.3,1.4,2,2.1c2.2,2.4,4.3,5.2,6.3,8.1
			c0.8,1.2,1.5,2.4,2.2,3.6C1607.8,783,1614.6,808.9,1614.6,837.7z"/>
	</g>
	<g>
		<path class="st70" d="M1611.7,834.8c0,27.5-6.1,52.3-16.1,70.3c-0.6,1.1-1.3,2.3-1.9,3.4c-1.7,2.8-3.6,5.4-5.5,7.8
			c-0.5,0.6-1,1.2-1.5,1.8c-3.3,3.8-6.7,7.1-10.4,9.6v0.3h-106.2c-0.4,2.8-0.8,5.6-1.3,8.4c-0.5,3.4-1.1,6.7-1.7,10.1h-70.1V719.9
			h64c0.8,3.3,1.5,6.7,2.2,10.1c0.8,3.9,1.6,7.8,2.4,11.8h110.6v0.3c2.6,1.7,5,3.8,7.4,6.2c0.7,0.7,1.3,1.4,2,2.1
			c2.2,2.4,4.3,5.2,6.3,8.1c0.8,1.2,1.5,2.4,2.2,3.6C1605,780.2,1611.7,806.1,1611.7,834.8z"/>
	</g>
</g>
<path class="st56" d="M753.4,1338.7c0-0.1,0-0.2,0.1-0.3v0.5C753.5,1338.9,753.4,1338.8,753.4,1338.7z"/>
<polygon class="st56" points="1049.7,1240.1 1048.9,1241.5 1048.9,1238.7 "/>
<path class="st56" d="M1048.9,1335.4v-2.9c0.4,0.5,0.9,1.1,1.3,1.7C1049.9,1334.6,1049.4,1335,1048.9,1335.4z"/>
<path class="st56" d="M1050.3,1303.5c-0.5,0.1-0.9,0.3-1.3,0.5v-1.8C1049.4,1302.6,1049.8,1303,1050.3,1303.5z"/>
<linearGradient id="SVGID_2_" gradientUnits="userSpaceOnUse" x1="1296.6639" y1="562.2233" x2="1416.65" y2="770.0455">
	<stop  offset="0" style="stop-color:#EC6150"/>
	<stop  offset="0.2" style="stop-color:#EC6150"/>
	<stop  offset="0.8" style="stop-color:#F8A921"/>
	<stop  offset="1" style="stop-color:#F8A921"/>
</linearGradient>
<path style="fill:url(#SVGID_2_);" d="M1465.7,741.7h-160.9v0.3c-1.5,0.4-3.3,0.9-5.4,1.6c-1.1-4.5-2.3-9.1-3.6-13.6
	c-0.9-3.4-1.9-6.7-3-10.1c-4.8-15.7-10.6-31-17.2-45.8c-1.5-3.4-3-6.8-4.7-10.1c-4.8-10.1-10-20-15.6-29.6
	c10.5-10.4,21-20.8,31.4-31.2c3.4-3.3,6.7-6.7,10-10c1.8-1.8,3.6-3.6,5.4-5.4c3.4-3.3,6.7-6.7,10.1-10c8-8,16.1-16,24.2-24
	c5.8-5.7,11.5-11.5,17.3-17.2c5.8-5.7,11.5-11.5,17.3-17.2c2.9,4,5.6,8.1,8.4,12.2c2.3,3.4,4.5,6.8,6.7,10.3
	c11.2,17.4,21.4,35.4,30.6,54c1.8,3.7,3.6,7.3,5.3,11c2.9,6.1,5.7,12.4,8.3,18.7c1.7,4,3.4,8.1,5,12.2c3.4,8.7,6.7,17.5,9.7,26.4
	c1.2,3.3,2.3,6.7,3.4,10.1c4.8,15,9,30.3,12.6,45.8c0.8,3.3,1.5,6.7,2.2,10.1C1464.1,733.9,1464.9,737.8,1465.7,741.7z"/>
<linearGradient id="SVGID_4_" gradientUnits="userSpaceOnUse" x1="1425.0118" y1="901.9306" x2="1304.7535" y2="1110.2242">
	<stop  offset="0" style="stop-color:#F8A921"/>
	<stop  offset="0.2" style="stop-color:#F8A921"/>
	<stop  offset="0.8" style="stop-color:#F7D900"/>
	<stop  offset="1" style="stop-color:#F7D900"/>
</linearGradient>
<path style="fill:url(#SVGID_4_);" d="M1470.1,928c-0.4,2.8-0.8,5.6-1.2,8.4c-0.5,3.4-1.1,6.7-1.7,10.1c-2.1,12.1-4.6,24-7.4,35.8
	c-0.8,3.4-1.6,6.7-2.5,10.1c-1,3.7-2,7.5-3,11.2c-1.7,6.2-3.6,12.3-5.6,18.3c-2.4,7.6-5,15.1-7.7,22.4c0,0,0,0,0,0.1v0
	c-2.2,6-4.5,11.9-6.9,17.8c-3.6,8.9-7.4,17.6-11.4,26.3c-5.3,11.4-11,22.6-17,33.6c-3.2,5.8-6.5,11.6-9.9,17.3
	c-3.5,5.8-7,11.6-10.7,17.3c-0.3-0.3-0.7-0.6-1-0.9c-10.9-10.4-21.9-20.9-32.8-31.3c-3.5-3.3-6.9-6.6-10.4-9.9
	c-4.2-4-8.3-7.9-12.5-11.9c-4.9-4.7-9.8-9.4-14.7-14c-1.4-1.3-2.8-2.7-4.2-4c-3.4-3.2-6.7-6.4-10-9.6c-1.7-1.7-3.5-3.3-5.2-5
	c-3.4-3.2-6.7-6.4-10.1-9.6c-2.3-2.2-4.6-4.4-6.9-6.6c-0.9-0.8-1.8-1.7-2.6-2.5c-3.8-3.6-7.6-7.3-11.5-10.9c-0.5-0.5-1-0.9-1.5-1.4
	c0.4-0.7,0.8-1.4,1.1-2.1v0c2.7-5.1,5.4-10.3,7.9-15.6c4.6-9.4,8.7-19.1,12.5-28.9c1.3-3.3,2.6-6.7,3.8-10.1
	c4.2-11.7,7.9-23.6,11-35.8c0.9-3.3,1.7-6.7,2.5-10.1c0.7-3.1,1.4-6.2,2-9.4c0.8,0.3,1.5,0.5,2.2,0.7v0.3H1470.1z"/>
<linearGradient id="SVGID_6_" gradientUnits="userSpaceOnUse" x1="1218.6318" y1="1247.9924" x2="973.5401" y2="1337.1985">
	<stop  offset="0" style="stop-color:#F7D900"/>
	<stop  offset="0.2" style="stop-color:#F7D900"/>
	<stop  offset="0.8" style="stop-color:#72B02C"/>
	<stop  offset="1" style="stop-color:#72B02C"/>
</linearGradient>
<path style="fill:url(#SVGID_6_);" d="M1240.9,1309.3c-1.2,0.9-2.5,1.8-3.7,2.7c-3.6,2.6-7.3,5.2-11,7.7
	c-7.1,4.8-14.4,9.5-21.7,14.1c-5.4,3.4-10.9,6.6-16.5,9.8c-4.6,2.7-9.3,5.3-14.1,7.8c-5.1,2.7-10.2,5.3-15.3,7.9
	c-3.9,1.9-7.8,3.8-11.8,5.7c-15.6,7.3-31.6,13.9-47.9,19.8v0c-4.1,1.5-8.2,2.9-12.4,4.3c-2.9,1-5.9,1.9-8.9,2.9
	c-3.3,1-6.7,2.1-10.1,3.1c-6.2,1.9-12.5,3.6-18.8,5.2c-2.6,0.7-5.2,1.3-7.8,2c-4,1-8.1,1.9-12.2,2.8c-2.2,0.5-4.5,1-6.8,1.4
	c-0.5,0.1-1,0.2-1.5,0.3c-1.7,0.4-3.4,0.7-5.1,1c-3.2,0.6-6.4,1.2-9.7,1.8c-1.3,0.3-2.6,0.5-3.9,0.7c-0.6,0.1-1.2,0.2-1.8,0.3
	v-166.7c0.6-0.2,1.2-0.3,1.9-0.5c5.6-1.5,11.2-3,16.7-4.7c1.8-0.5,3.6-1.1,5.4-1.7c4.4-1.4,8.7-2.8,13-4.4c2.2-0.8,4.5-1.6,6.7-2.4
	c8.1-3.1,16.1-6.4,23.9-10c4.6-2.1,9.2-4.3,13.7-6.6c3-1.4,6-3,8.9-4.6c6.1-3.2,12.1-6.6,18-10.1c4.5-2.7,9.1-5.5,13.5-8.4
	c0.2-0.1,0.3-0.2,0.5-0.3l0.4,0.4c2.8,2.8,5.5,5.6,8.3,8.4c3.4,3.4,6.7,6.7,10,10.1c1.5,1.5,3,3.1,4.5,4.6c3.4,3.4,6.7,6.7,10,10.1
	c6.1,6.1,12.2,12.3,18.3,18.4c4.7,4.7,9.4,9.4,14.1,14.1c3,3,5.9,5.9,8.9,8.9v0c4.3,4.3,8.5,8.6,12.8,12.9c0,0,0,0,0,0
	c6.9,6.9,13.7,13.7,20.6,20.6c0,0,0,0,0,0C1233.8,1302.1,1237.4,1305.7,1240.9,1309.3z"/>
<linearGradient id="SVGID_8_" gradientUnits="userSpaceOnUse" x1="838.8995" y1="1342.0677" x2="594.5742" y2="1253.1406">
	<stop  offset="0" style="stop-color:#72B02C"/>
	<stop  offset="0.2" style="stop-color:#72B02C"/>
	<stop  offset="0.8" style="stop-color:#25B4B1"/>
	<stop  offset="1" style="stop-color:#25B4B1"/>
</linearGradient>
<path style="fill:url(#SVGID_8_);" d="M813.9,1248.3v162.5c-1.3-0.2-2.6-0.4-3.8-0.7c-1-0.2-2-0.3-3.1-0.5c-1.7-0.2-3.3-0.6-5-0.9
	c-1.9-0.3-3.9-0.7-5.8-1.1c-0.9-0.2-1.9-0.4-2.8-0.6c-1.1-0.2-2.2-0.4-3.2-0.7c-0.9-0.2-1.8-0.4-2.7-0.6c-2-0.4-4.1-0.9-6.1-1.3
	c-6.7-1.5-13.4-3.1-20-4.8c-1.5-0.4-2.9-0.8-4.4-1.2c-1.1-0.3-2.3-0.6-3.4-1c-1.2-0.3-2.3-0.6-3.5-1c-8.8-2.5-17.5-5.2-26.1-8.1
	c-31.8-10.7-62.4-24.2-91.4-40.1c-4-2.2-8-4.4-11.9-6.7c-16.2-9.4-32-19.6-47.1-30.5c3-3.2,6.1-6.4,9.1-9.6c2.1-2.2,4.3-4.5,6.4-6.7
	c12.8-13.4,25.5-26.7,38.2-40.1c2.1-2.2,4.3-4.5,6.4-6.7c7.7-8,15.3-16,22.9-24c3.2-3.4,6.4-6.7,9.6-10.1c1.8-1.9,3.6-3.8,5.4-5.7
	c3.2-3.4,6.4-6.7,9.6-10.1c0.5-0.5,0.9-0.9,1.4-1.4c0.8,0.5,1.6,1,2.4,1.4c5.8,3.5,11.8,6.9,17.8,10.1c3.6,2,7.3,3.9,11,5.7
	c7.2,3.6,14.5,6.9,22,10.1c1.4,0.6,2.8,1.2,4.2,1.8c3.3,1.4,6.7,2.7,10.1,4c4.3,1.7,8.6,3.2,12.9,4.7h0c1.5,0.5,3.1,1,4.6,1.5
	c9.5,3.1,19,5.9,28.8,8.3C802.2,1245.8,808,1247.1,813.9,1248.3z"/>
<linearGradient id="SVGID_10_" gradientUnits="userSpaceOnUse" x1="501.7661" y1="1116.674" x2="380.0494" y2="905.8545">
	<stop  offset="0" style="stop-color:#25B4B1"/>
	<stop  offset="0.2" style="stop-color:#25B4B1"/>
	<stop  offset="0.8" style="stop-color:#5A55A1"/>
	<stop  offset="1" style="stop-color:#5A55A1"/>
</linearGradient>
<path style="fill:url(#SVGID_10_);" d="M538.4,1049.7l-5,4.9l-10.1,10l-5.4,5.4l-10.1,10l-29.5,29.3l-6.7,6.7l-40.3,40.1l-3,2.9
	c-0.6-1-1.2-1.9-1.9-2.9c-8.4-13-16.2-26.4-23.5-40.1c-1.2-2.2-2.4-4.4-3.5-6.7c-6.8-13.1-13.1-26.4-18.8-40.1
	c-0.9-2.2-1.9-4.4-2.8-6.7c-5.3-13.1-10.2-26.5-14.5-40.1c-0.7-2.2-1.4-4.4-2.1-6.7c-2.4-7.9-4.7-16-6.8-24
	c-0.9-3.3-1.7-6.7-2.5-10.1c-2.5-10.5-4.8-21.1-6.7-31.9c-0.6-3.3-1.2-6.7-1.7-10.1c-0.7-3.9-1.2-7.8-1.8-11.8h150
	c0.8,4,1.7,7.9,2.7,11.8c0.8,3.4,1.7,6.7,2.6,10.1c2.9,10.8,6.2,21.4,9.9,31.9c3.4,9.4,7,18.6,11,27.7c1.7,4,3.5,7.9,5.4,11.8
	c3.2,6.6,6.5,13.2,10.1,19.6C535,1043.8,536.7,1046.8,538.4,1049.7z"/>
<linearGradient id="SVGID_12_" gradientUnits="userSpaceOnUse" x1="388.3128" y1="766.0649" x2="514.3156" y2="547.8217">
	<stop  offset="0" style="stop-color:#5A55A1"/>
	<stop  offset="0.2" style="stop-color:#5A55A1"/>
	<stop  offset="0.8" style="stop-color:#A65A95"/>
	<stop  offset="1" style="stop-color:#A65A95"/>
</linearGradient>
<path style="fill:url(#SVGID_12_);" d="M553.9,610.5c-7.4,10.9-14.2,22.2-20.6,33.8c-3.6,6.4-6.9,13-10,19.6
	c-9.1,19-16.9,38.9-23,59.4c-1,3.3-2,6.7-2.9,10.1c-0.8,2.8-1.5,5.6-2.2,8.4h-149c0.5-2.8,1.1-5.6,1.6-8.4c0.7-3.4,1.4-6.7,2.2-10.1
	c3.8-17.2,8.5-34.2,13.9-50.8c1.1-3.3,2.2-6.7,3.4-10.1c8.5-24.8,18.8-48.8,30.5-71.9c6.7-13.1,13.8-25.9,21.4-38.4
	c8.9-14.7,18.5-28.9,28.7-42.6c14.9,14.2,29.8,28.4,44.7,42.6c4.9,4.7,9.8,9.4,14.7,14.1c0.2,0.2,0.4,0.4,0.6,0.6
	c3.4,3.2,6.7,6.4,10,9.6c1.7,1.7,3.4,3.3,5.2,5c3.4,3.2,6.7,6.4,10,9.6C540.2,597.4,547,603.9,553.9,610.5z"/>
<linearGradient id="SVGID_14_" gradientUnits="userSpaceOnUse" x1="622.8711" y1="425.797" x2="836.4777" y2="348.0505">
	<stop  offset="0" style="stop-color:#A65A95"/>
	<stop  offset="0.2" style="stop-color:#A65A95"/>
	<stop  offset="0.8" style="stop-color:#F3A0C5"/>
	<stop  offset="1" style="stop-color:#F3A0C5"/>
</linearGradient>
<path style="fill:url(#SVGID_14_);" d="M817,436c-3.8,0.7-7.6,1.6-11.5,2.4c-3.4,0.7-6.7,1.5-10.1,2.4c-15.6,3.9-30.8,8.7-45.6,14.4
	c-3.4,1.3-6.8,2.6-10.1,4c-10.9,4.5-21.5,9.4-31.9,14.7c-5.9-6-11.9-12-17.8-18c-3.4-3.4-6.7-6.8-10-10.1c-1.5-1.5-3-3-4.5-4.5
	c-3.4-3.4-6.7-6.7-10-10.1c-7.2-7.3-14.4-14.5-21.6-21.8c-4.7-4.7-9.4-9.4-14-14.1c-9.5-9.5-18.9-19-28.4-28.5
	c9.3-5.9,18.7-11.5,28.4-16.9c4.6-2.6,9.3-5.1,14-7.5c4.9-2.5,9.8-5,14.7-7.3c10.3-5,20.9-9.7,31.5-14c16.3-6.7,33-12.6,50-17.8
	c3.3-1,6.5-2,9.8-2.9c15-4.3,30.2-7.9,45.6-10.9c3.4-0.7,6.7-1.3,10.1-1.9c2.8-0.5,5.6-1,8.4-1.5v141h0.3
	C814.8,429.3,815.7,432.4,817,436z"/>
<linearGradient id="SVGID_16_" gradientUnits="userSpaceOnUse" x1="975.9038" y1="353.079" x2="1198.8356" y2="434.2195">
	<stop  offset="0" style="stop-color:#F3A0C5"/>
	<stop  offset="0.2" style="stop-color:#F3A0C5"/>
	<stop  offset="0.8" style="stop-color:#EC6150"/>
	<stop  offset="1" style="stop-color:#EC6150"/>
</linearGradient>
<path style="fill:url(#SVGID_16_);" d="M1220.9,373.6c-5.9,6.2-11.8,12.4-17.7,18.6c0,0,0,0,0,0c-5,5.3-10.1,10.6-15.1,15.9
	c-7.7,8-15.3,16-22.9,24c-3.2,3.3-6.4,6.7-9.6,10c-1.7,1.8-3.4,3.5-5.1,5.3c-3.2,3.4-6.4,6.7-9.6,10.1
	c-9.7,10.2-19.4,20.4-29.2,30.6c-10.2-6.2-20.7-12-31.5-17.3c-3.3-1.7-6.7-3.3-10.1-4.8c-15.6-7.1-31.6-13.4-48.2-18.6
	c-3.3-1.1-6.7-2.1-10.1-3.1c-5.4-1.6-10.9-3-16.4-4.4c2-5.1,3.4-9.5,4.4-13h0.3V286.4c3.9,0.7,7.9,1.4,11.8,2.1
	c3.4,0.6,6.7,1.3,10.1,2c16.3,3.4,32.4,7.5,48.2,12.2c3.4,1,6.7,2,10.1,3.1c8.5,2.7,16.9,5.6,25.2,8.8c4.2,1.5,8.3,3.1,12.4,4.8
	c6.5,2.6,12.8,5.3,19.2,8.1c3.9,1.7,7.8,3.5,11.6,5.4c17.5,8.2,34.4,17.3,50.8,27.2c3.6,2.2,7.3,4.5,10.9,6.7
	C1213.9,369,1217.4,371.3,1220.9,373.6z"/>
<g>
	<path class="st75" d="M999.8,155.5c-14.1-20.7-50.3-35.4-92.8-35.4c-42.5,0-78.7,14.7-92.8,35.4h-0.3v271.6h0.3
		c0.6,2.2,1.5,5.3,2.8,8.9c0.3,1,0.7,2,1.1,3c3.2,8.7,8.6,20.7,15.8,33c2.6,4.4,5.4,8.8,8.5,13.2c0,0,0,0,0,0
		c8.5,12.2,18.9,23.7,30.7,31.8c4.9,3.3,10.1,6.1,15.5,8c5.9,2.1,12.1,3.3,18.6,3.3c7.1,0,13.8-1.5,20.1-4c4.8-1.9,9.4-4.5,13.8-7.5
		h0c13.6-9.4,24.8-23.1,33.6-36.4c2.7-4.2,5.2-8.3,7.4-12.2c7.6-13.4,12.1-24.5,13.1-26.9c0.2-0.5,0.3-0.9,0.5-1.3
		c2-5.1,3.4-9.5,4.4-13h0.3V155.5H999.8z M877.9,462.5c0-2.2,0.3-4.4,0.8-6.5v0c3-12,13.8-20.9,26.7-20.9
		c15.2,0,27.5,12.3,27.5,27.5c0,3.3-0.6,6.5-1.7,9.4v0c0,0-0.1,0.1-0.1,0.1c-3.8,10.5-13.9,17.9-25.7,17.9
		C890.2,489.9,877.9,477.6,877.9,462.5z"/>
</g>
<path class="st76" d="M1460.5,430.4c-0.6,0.6-1.2,1.2-1.8,1.8c-3.4,3.4-6.7,6.7-10.1,10c-1.8,1.8-3.6,3.5-5.3,5.3
	c-3.4,3.4-6.7,6.7-10.1,10.1c-8.1,8.1-16.2,16.1-24.3,24.2c-5.8,5.7-11.5,11.5-17.3,17.2h0c-6.8,6.8-13.6,13.6-20.5,20.3
	c-5.8,5.7-11.5,11.5-17.3,17.2c-5.8,5.7-11.6,11.5-17.3,17.2v0c-8.1,8-16.1,16-24.2,24c-3.4,3.4-6.7,6.7-10.1,10
	c-1.8,1.8-3.6,3.6-5.4,5.4c-3.4,3.3-6.7,6.7-10,10c-10.5,10.4-20.9,20.8-31.4,31.2c-4.1-7-8.3-13.9-12.8-20.6
	c-2.5-3.7-5-7.4-7.7-11.1c-4-5.6-8.1-11.2-12.4-16.6c-2.5-3.2-5.1-6.3-7.7-9.5c-5.5-6.6-11.2-13-17.1-19.2
	c-3.4-3.6-6.9-7.2-10.5-10.7c-6.1-6-12.4-11.8-18.9-17.4c-3.1-2.7-6.2-5.3-9.4-7.9c-5.3-4.4-10.8-8.6-16.4-12.7
	c-3.6-2.7-7.3-5.3-11-7.8c-6.4-4.4-13-8.7-19.7-12.7c9.7-10.2,19.4-20.4,29.2-30.6c3.2-3.4,6.4-6.7,9.6-10.1
	c1.7-1.8,3.4-3.5,5.1-5.3c3.2-3.4,6.4-6.7,9.6-10c7.6-8,15.3-16,22.9-24c5-5.3,10.1-10.6,15.1-15.9c0,0,0,0,0,0
	c5.9-6.2,11.8-12.4,17.7-18.6c8.9-9.3,17.8-18.7,26.7-28v0c5.1-5.3,10.1-10.6,15.1-15.9v0c8-8.4,15.9-16.7,23.9-25.1
	c3.4-3.5,6.7-7,10-10.5c1.8-1.9,3.6-3.8,5.4-5.7c2.4-2.5,4.8-5,7.2-7.5c0.9-0.2,1.9-0.3,2.9-0.5c9.8-1.5,24.3-2.8,40.7-0.3
	c4.7,0.7,9.6,1.7,14.5,3.1c6.4,1.8,12.9,4.2,19.5,7.4c0.4,0.2,0.9,0.4,1.3,0.7c3.9,1.9,7.7,4.1,11.3,6.5c7.7,5,14.7,10.9,21,17.6h0
	c3.2,3.3,6.2,6.9,9,10.6c0,0,0,0,0,0c5.5,7.1,10.2,14.9,14.3,23.1c1.9,3.8,3.6,7.7,5.2,11.7c2.6,6.6,4.8,13.6,6.5,20.7
	c1.1,4.6,2.1,9.2,2.8,14C1460.3,406.8,1461,418.5,1460.5,430.4z"/>
<g>
	<path class="st77" d="M1594.2,762.1c-0.7-1.2-1.5-2.4-2.2-3.6c-2-3-4.1-5.7-6.3-8.1c-0.6-0.7-1.3-1.4-2-2.1
		c-2.4-2.4-4.8-4.5-7.4-6.2v-0.3h-271.5v0.3c-1.5,0.4-3.3,0.9-5.4,1.6c-2,0.6-4.2,1.4-6.5,2.2c-8.3,3.1-19.5,8.1-31.2,14.8
		c-5.7,3.3-11.5,6.9-17.1,11c-11.1,8-21.5,17.6-29.1,28.4c-4,5.8-7.3,12-9.3,18.5c-1.7,5.2-2.6,10.7-2.5,16.3
		c0,6.8,1.4,13.2,3.7,19.3c2.4,6.3,5.8,12.2,10,17.7c7.5,9.9,17.2,18.5,27.1,25.7c4.8,3.4,9.6,6.6,14.3,9.4
		c15.6,9.4,29.1,14.9,31.9,16c4.6,1.8,8.7,3.2,12.1,4.2c0.8,0.3,1.5,0.5,2.2,0.7v0.3h271.5v-0.3c3.7-2.5,7.2-5.7,10.4-9.6
		c0.5-0.6,1-1.2,1.5-1.8c1.9-2.4,3.7-5,5.5-7.8c0.7-1.1,1.3-2.2,1.9-3.4c9.9-17.9,16.1-42.8,16.1-70.3
		C1611.7,806.1,1605,780.2,1594.2,762.1z M1269.4,860.7c-1.8,0-3.6-0.2-5.3-0.5c-5.7-1.1-10.7-3.9-14.5-7.9
		c-4.8-4.9-7.7-11.6-7.7-19c0-8,3.4-15.2,8.9-20.2c4-3.7,9.2-6.3,14.9-7c1.2-0.2,2.4-0.3,3.7-0.3c4.5,0,8.7,1.1,12.5,3
		c4.6,2.3,8.4,5.9,11,10.3c1,1.6,1.8,3.3,2.4,5.1c1,2.8,1.6,5.9,1.6,9.1c0,3.6-0.7,7-2,10.2c-1.1,2.8-2.7,5.4-4.6,7.6
		c-1.9,2.2-4.1,4.1-6.6,5.6C1279.5,859.2,1274.6,860.7,1269.4,860.7z"/>
</g>
<path class="st65" d="M1453.5,1295c-1.2,3.2-2.6,6.5-4.2,9.7c-0.3,0.7-0.7,1.4-1.1,2.1c-2.2,4.4-4.8,8.7-7.7,12.8
	c-3.4,5-7.2,9.6-11.4,14c-2.9,3.2-6.1,6.2-9.4,9c-4.4,3.8-9.1,7.3-14,10.6c-4.4,2.9-9.1,5.6-13.9,8c-3.8,1.9-7.8,3.7-11.8,5.3
	c-15.1,6.1-31.7,9.9-49.1,11.2c-4.3,0.4-8.6,0.5-13,0.5c-2.8,0.1-5.5,0-8.4-0.1l0,0c-3.4-3.4-6.7-6.7-10-10.1
	c-1.7-1.7-3.4-3.5-5.2-5.2c-3.4-3.4-6.7-6.7-10.1-10.1c-6.3-6.4-12.6-12.7-19-19.1c-4.6-4.7-9.3-9.4-14-14.1
	c-2.7-2.8-5.5-5.5-8.2-8.3c-0.7-0.7-1.4-1.4-2.1-2.1c-3.6-3.6-7.1-7.2-10.7-10.8c0,0,0,0,0,0c-6.9-6.9-13.7-13.7-20.5-20.6
	c0,0,0,0,0,0c-4.2-4.3-8.5-8.6-12.8-12.9v0c-3-3-5.9-5.9-8.9-8.9c-4.7-4.7-9.4-9.4-14.1-14.1c-6.1-6.1-12.2-12.3-18.3-18.4
	c-3.3-3.4-6.7-6.7-10-10.1c-1.5-1.5-3-3-4.5-4.6c-3.3-3.4-6.7-6.7-10-10.1c-2.8-2.8-5.5-5.6-8.3-8.4l-0.4-0.4
	c14.9-9.7,29.1-20.3,42.6-31.7v0c3-2.6,6-5.2,9-7.9c4.8-4.3,9.5-8.7,14.1-13.2c11.1-10.9,21.5-22.5,31.3-34.6
	c3.7-4.6,7.3-9.3,10.8-14c1.9-2.5,3.8-5.1,5.5-7.7c3.4-4.8,6.6-9.6,9.8-14.5c5.7-8.9,11.2-18,16.2-27.4c0.5,0.5,1,0.9,1.5,1.4
	c3.8,3.7,7.7,7.3,11.5,10.9v0c0.9,0.8,1.8,1.7,2.6,2.5c2.3,2.2,4.6,4.4,6.9,6.6c3.4,3.2,6.7,6.4,10.1,9.6c1.7,1.7,3.4,3.3,5.2,5
	c3.4,3.2,6.7,6.4,10,9.6c1.4,1.3,2.8,2.6,4.2,4c4.9,4.7,9.8,9.4,14.7,14.1c4.2,4,8.3,7.9,12.5,11.9c3.5,3.3,6.9,6.6,10.4,9.9
	c11,10.4,21.9,20.9,32.8,31.3c0.3,0.3,0.7,0.6,1,0.9c3.1,3,6.3,6,9.4,9c3.7,3.6,7.4,7.1,11.2,10.6c4.7,4.5,9.4,8.9,14,13.4
	c3.2,3,6.4,6.1,9.6,9.1c3.5,3.4,7,6.7,10.6,10.1c1.6,1.5,3.2,3,4.8,4.6c3.5,3.4,7,6.7,10.6,10c1.3,1.3,2.6,2.5,3.9,3.7
	c0.3,1.8,0.6,3.7,0.9,5.9c0.5,3.8,0.9,8.1,1.1,12.9C1461.7,1259.6,1460.4,1277,1453.5,1295z"/>
<g>
	<path class="st78" d="M921.2,1166c2.6,1.3,4.9,3,6.9,5c1.7-0.8,3.2-1.7,4.6-2.9C929.1,1166.8,925.2,1166.1,921.2,1166z M921.2,1166
		c2.6,1.3,4.9,3,6.9,5c1.7-0.8,3.2-1.7,4.6-2.9C929.1,1166.8,925.2,1166.1,921.2,1166z M921.2,1166c2.6,1.3,4.9,3,6.9,5
		c1.7-0.8,3.2-1.7,4.6-2.9C929.1,1166.8,925.2,1166.1,921.2,1166z M921.2,1166c2.6,1.3,4.9,3,6.9,5c1.7-0.8,3.2-1.7,4.6-2.9
		C929.1,1166.8,925.2,1166.1,921.2,1166z M921.2,1166c2.6,1.3,4.9,3,6.9,5c1.7-0.8,3.2-1.7,4.6-2.9
		C929.1,1166.8,925.2,1166.1,921.2,1166z M921.2,1166c2.6,1.3,4.9,3,6.9,5c1.7-0.8,3.2-1.7,4.6-2.9
		C929.1,1166.8,925.2,1166.1,921.2,1166z M921.2,1166c2.6,1.3,4.9,3,6.9,5c1.7-0.8,3.2-1.7,4.6-2.9
		C929.1,1166.8,925.2,1166.1,921.2,1166z M921.2,1166c2.6,1.3,4.9,3,6.9,5c1.7-0.8,3.2-1.7,4.6-2.9
		C929.1,1166.8,925.2,1166.1,921.2,1166z M921.2,1166c2.6,1.3,4.9,3,6.9,5c1.7-0.8,3.2-1.7,4.6-2.9
		C929.1,1166.8,925.2,1166.1,921.2,1166z M921.2,1166c2.6,1.3,4.9,3,6.9,5c1.7-0.8,3.2-1.7,4.6-2.9
		C929.1,1166.8,925.2,1166.1,921.2,1166z M921.2,1166c2.6,1.3,4.9,3,6.9,5c1.7-0.8,3.2-1.7,4.6-2.9
		C929.1,1166.8,925.2,1166.1,921.2,1166z M921.2,1166c2.6,1.3,4.9,3,6.9,5c1.7-0.8,3.2-1.7,4.6-2.9
		C929.1,1166.8,925.2,1166.1,921.2,1166z M921.2,1166c2.6,1.3,4.9,3,6.9,5c1.7-0.8,3.2-1.7,4.6-2.9
		C929.1,1166.8,925.2,1166.1,921.2,1166z M921.2,1166c2.6,1.3,4.9,3,6.9,5c1.7-0.8,3.2-1.7,4.6-2.9
		C929.1,1166.8,925.2,1166.1,921.2,1166z M921.2,1166c2.6,1.3,4.9,3,6.9,5c1.7-0.8,3.2-1.7,4.6-2.9
		C929.1,1166.8,925.2,1166.1,921.2,1166z M921.2,1166c2.6,1.3,4.9,3,6.9,5c1.7-0.8,3.2-1.7,4.6-2.9
		C929.1,1166.8,925.2,1166.1,921.2,1166z M921.2,1166c2.6,1.3,4.9,3,6.9,5c1.7-0.8,3.2-1.7,4.6-2.9
		C929.1,1166.8,925.2,1166.1,921.2,1166z M921.2,1166c2.6,1.3,4.9,3,6.9,5c1.7-0.8,3.2-1.7,4.6-2.9
		C929.1,1166.8,925.2,1166.1,921.2,1166z M921.2,1166c2.6,1.3,4.9,3,6.9,5c1.7-0.8,3.2-1.7,4.6-2.9
		C929.1,1166.8,925.2,1166.1,921.2,1166z M921.2,1166c2.6,1.3,4.9,3,6.9,5c1.7-0.8,3.2-1.7,4.6-2.9
		C929.1,1166.8,925.2,1166.1,921.2,1166z M921.2,1166c2.6,1.3,4.9,3,6.9,5c1.7-0.8,3.2-1.7,4.6-2.9
		C929.1,1166.8,925.2,1166.1,921.2,1166z M921.2,1166c2.6,1.3,4.9,3,6.9,5c1.7-0.8,3.2-1.7,4.6-2.9
		C929.1,1166.8,925.2,1166.1,921.2,1166z M921.2,1166c2.6,1.3,4.9,3,6.9,5c1.7-0.8,3.2-1.7,4.6-2.9
		C929.1,1166.8,925.2,1166.1,921.2,1166z M999.9,1225.9c-0.6-2-1.3-4.6-2.4-7.8c-0.5-1.3-0.9-2.7-1.5-4.2c-0.1-0.4-0.3-0.9-0.5-1.3
		c-0.5-1.4-1.1-2.9-1.7-4.4c-1-2.5-2.2-5.2-3.5-8c-5.6-12.1-13.6-26.5-23.6-39.4c-1.6-2-3.2-4.1-5-6c-14.7-17-33.2-30.2-54.7-30.1
		c-3.2,0-6.3,0.3-9.3,0.9c-5.2,0.9-10.2,2.7-14.9,5c-4.2,2-8.2,4.5-12.1,7.4c-1.9,1.4-3.7,2.8-5.4,4.4c-5.2,4.4-9.9,9.4-14.2,14.7
		c-3.5,4.2-6.7,8.5-9.6,12.7c-0.9,1.3-1.8,2.6-2.6,4c-0.6,0.9-1.3,1.9-1.8,2.8c-5.7,9.2-10.2,17.9-13.3,24.4c-1.4,3-2.5,5.6-3.4,7.5
		c-0.7,1.6-1.1,2.7-1.3,3.3c-0.3,0.7-0.5,1.3-0.7,1.9c-0.3,0.8-0.6,1.5-0.9,2.3c-0.9,2.6-1.7,5.1-2.4,7.2c-0.3,0.9-0.5,1.8-0.8,2.6
		c0,0.1-0.1,0.2-0.1,0.3h-0.3v271.6h0.3c0.4,0.6,0.9,1.3,1.4,1.9c0.7,1,1.5,1.9,2.4,2.8c3.2,3.7,7.3,7.2,11.9,10.3
		c4.5,3.1,9.6,5.9,15.1,8.3c6.8,3,14.3,5.5,22.3,7.4c4.8,1.2,9.7,2.1,14.9,2.8c1.3,0.2,2.6,0.4,4,0.5c0,0,0,0,0,0
		c1.3,0.2,2.6,0.3,4,0.4c1.3,0.1,2.6,0.3,3.9,0.3c2.7,0.2,5.4,0.3,8.2,0.4c1.5,0.1,3.1,0.1,4.7,0.1h0.1c1.2,0,2.3,0,3.5-0.1
		c1.5,0,2.9-0.1,4.4-0.1c1.9-0.1,3.8-0.2,5.6-0.3c9.1-0.7,17.9-2,26-4c1.5-0.3,3-0.7,4.5-1.1c0.6-0.2,1.2-0.3,1.8-0.5
		c1.2-0.3,2.4-0.7,3.6-1.1c2.7-0.9,5.3-1.8,7.9-2.8c2.9-1.1,5.6-2.3,8.3-3.6c0.4-0.2,0.8-0.4,1.2-0.6c8.2-4.2,15.2-9.1,20.5-14.5
		c0,0,0,0,0,0c2-2.1,3.8-4.3,5.4-6.5h0.3v-271.6H999.9z M928.1,1171c1.5,1.5,2.9,3.2,4,5.1c0.5,0.8,1,1.6,1.4,2.4
		c1.5,3.1,2.4,6.5,2.6,10.1c0,0.6,0.1,1.2,0.1,1.8c0,7.1-2.7,13.6-7.1,18.5c0,0,0,0-0.1,0.1c-2.8,3.1-6.4,5.6-10.4,7.1
		c-1.2,0.5-2.5,0.9-3.8,1.2c-1.8,0.4-3.7,0.7-5.6,0.7h-0.5c-1.1,0-2.1-0.1-3.1-0.2c-1.2-0.1-2.4-0.3-3.5-0.6
		c-1.5-0.4-2.9-0.8-4.3-1.4c-1.7-0.7-3.3-1.6-4.8-2.7c-1-0.7-2-1.5-3-2.4c-1-0.9-1.9-1.9-2.8-3c-1.1-1.4-2.1-2.8-2.9-4.4
		c-2-3.8-3.2-8.2-3.2-12.8c0-1.6,0.1-3.2,0.4-4.8c0-0.1,0-0.2,0.1-0.3c1.3-7.1,5.3-13.2,10.9-17.2c4.5-3.3,10-5.2,16.1-5.2
		c4.5,0,8.8,1.1,12.5,3C923.8,1167.3,926.1,1169,928.1,1171z M921.2,1166c2.6,1.3,4.9,3,6.9,5c1.7-0.8,3.2-1.7,4.6-2.9
		C929.1,1166.8,925.2,1166.1,921.2,1166z M921.2,1166c2.6,1.3,4.9,3,6.9,5c1.7-0.8,3.2-1.7,4.6-2.9
		C929.1,1166.8,925.2,1166.1,921.2,1166z M921.2,1166c2.6,1.3,4.9,3,6.9,5c1.7-0.8,3.2-1.7,4.6-2.9
		C929.1,1166.8,925.2,1166.1,921.2,1166z M921.2,1166c2.6,1.3,4.9,3,6.9,5c1.7-0.8,3.2-1.7,4.6-2.9
		C929.1,1166.8,925.2,1166.1,921.2,1166z M921.2,1166c2.6,1.3,4.9,3,6.9,5c1.7-0.8,3.2-1.7,4.6-2.9
		C929.1,1166.8,925.2,1166.1,921.2,1166z M921.2,1166c2.6,1.3,4.9,3,6.9,5c1.7-0.8,3.2-1.7,4.6-2.9
		C929.1,1166.8,925.2,1166.1,921.2,1166z M921.2,1166c2.6,1.3,4.9,3,6.9,5c1.7-0.8,3.2-1.7,4.6-2.9
		C929.1,1166.8,925.2,1166.1,921.2,1166z M921.2,1166c2.6,1.3,4.9,3,6.9,5c1.7-0.8,3.2-1.7,4.6-2.9
		C929.1,1166.8,925.2,1166.1,921.2,1166z M921.2,1166c2.6,1.3,4.9,3,6.9,5c1.7-0.8,3.2-1.7,4.6-2.9
		C929.1,1166.8,925.2,1166.1,921.2,1166z M921.2,1166c2.6,1.3,4.9,3,6.9,5c1.7-0.8,3.2-1.7,4.6-2.9
		C929.1,1166.8,925.2,1166.1,921.2,1166z M921.2,1166c2.6,1.3,4.9,3,6.9,5c1.7-0.8,3.2-1.7,4.6-2.9
		C929.1,1166.8,925.2,1166.1,921.2,1166z M921.2,1166c2.6,1.3,4.9,3,6.9,5c1.7-0.8,3.2-1.7,4.6-2.9
		C929.1,1166.8,925.2,1166.1,921.2,1166z M921.2,1166c2.6,1.3,4.9,3,6.9,5c1.7-0.8,3.2-1.7,4.6-2.9
		C929.1,1166.8,925.2,1166.1,921.2,1166z M921.2,1166c2.6,1.3,4.9,3,6.9,5c1.7-0.8,3.2-1.7,4.6-2.9
		C929.1,1166.8,925.2,1166.1,921.2,1166z M921.2,1166c2.6,1.3,4.9,3,6.9,5c1.7-0.8,3.2-1.7,4.6-2.9
		C929.1,1166.8,925.2,1166.1,921.2,1166z M921.2,1166c2.6,1.3,4.9,3,6.9,5c1.7-0.8,3.2-1.7,4.6-2.9
		C929.1,1166.8,925.2,1166.1,921.2,1166z M921.2,1166c2.6,1.3,4.9,3,6.9,5c1.7-0.8,3.2-1.7,4.6-2.9
		C929.1,1166.8,925.2,1166.1,921.2,1166z M921.2,1166c2.6,1.3,4.9,3,6.9,5c1.7-0.8,3.2-1.7,4.6-2.9
		C929.1,1166.8,925.2,1166.1,921.2,1166z M921.2,1166c2.6,1.3,4.9,3,6.9,5c1.7-0.8,3.2-1.7,4.6-2.9
		C929.1,1166.8,925.2,1166.1,921.2,1166z M921.2,1166c2.6,1.3,4.9,3,6.9,5c1.7-0.8,3.2-1.7,4.6-2.9
		C929.1,1166.8,925.2,1166.1,921.2,1166z M921.2,1166c2.6,1.3,4.9,3,6.9,5c1.7-0.8,3.2-1.7,4.6-2.9
		C929.1,1166.8,925.2,1166.1,921.2,1166z M921.2,1166c2.6,1.3,4.9,3,6.9,5c1.7-0.8,3.2-1.7,4.6-2.9
		C929.1,1166.8,925.2,1166.1,921.2,1166z M921.2,1166c2.6,1.3,4.9,3,6.9,5c1.7-0.8,3.2-1.7,4.6-2.9
		C929.1,1166.8,925.2,1166.1,921.2,1166z"/>
</g>
<path class="st79" d="M682.4,1196.8c-0.5,0.5-0.9,0.9-1.4,1.4c-3.2,3.4-6.4,6.7-9.6,10.1c-1.8,1.9-3.6,3.8-5.4,5.7
	c-3.2,3.4-6.4,6.7-9.6,10.1c-7.6,8-15.3,16-22.9,24c-2.1,2.2-4.2,4.5-6.4,6.7c-12.7,13.4-25.5,26.7-38.2,40.1
	c-2.1,2.2-4.2,4.5-6.4,6.7c-3,3.2-6.1,6.4-9.1,9.6c-9.7,10.2-19.4,20.3-29.1,30.5c-2.1,2.2-4.2,4.5-6.4,6.7c-1.5,1.6-3,3.1-4.5,4.7
	c-3.3,3.5-6.7,7.1-10.1,10.6c-1.8,1.9-3.6,3.8-5.4,5.7c-2.6,2.7-5.2,5.5-7.8,8.2c-0.7,0.1-1.5,0.3-2.2,0.4
	c-16,2.6-45.5,4.6-75.4-10.1c-10.3-5-19.7-11.6-28.2-19.5c-2.3-2.1-4.6-4.4-6.7-6.7c-10.6-11.4-19.3-25-25.7-40.1
	c-0.9-2.2-1.8-4.4-2.6-6.7c-4.7-12.5-7.9-26-9.4-40.1c-0.3-2.2-0.5-4.4-0.6-6.7c-0.5-6.6-0.6-13.3-0.3-20.1c1.3-1.3,2.6-2.6,4-3.9
	c3.4-3.4,6.7-6.7,10.1-10.1c1.9-1.9,3.8-3.8,5.7-5.7c3.4-3.4,6.7-6.7,10.1-10.1c11.8-11.8,23.7-23.6,35.5-35.3
	c1.3-1.3,2.5-2.5,3.8-3.8l3-2.9l40.3-40.1l6.7-6.7l29.5-29.3l10-10l5.4-5.4l10.1-10l5-5c2.5,4.4,5.1,8.6,7.8,12.9
	c1.4,2.2,2.8,4.5,4.3,6.7c9.2,14,19.2,27.4,29.9,40.1c1.9,2.2,3.8,4.5,5.8,6.7c12.5,14.3,26.1,27.7,40.5,40.1
	c2.6,2.3,5.3,4.5,7.9,6.7C649.7,1175.2,665.7,1186.6,682.4,1196.8z"/>
<g>
	<path class="st80" d="M600.1,808.2c-2.2-4.2-4.8-8.1-7.8-11.8c-6.1-7.7-13.5-14.7-21.3-20.7c-3.8-2.9-7.6-5.6-11.4-8.2
		c-18.6-12.2-36.2-19.4-39.4-20.7c-5.6-2.2-10.5-3.8-14.3-4.8v-0.3H234.4v0.3c-20.7,14.1-35.4,50.3-35.4,92.8
		c0,42.5,14.7,78.7,35.4,92.8v0.3H506v-0.3c2.8-0.8,7-2,12-3.8c10.4-3.8,25.4-10.7,40-20.1c3.8-2.4,7.6-5,11.3-7.9
		c8.1-6.1,15.7-13,21.9-20.6c3-3.6,5.6-7.4,7.9-11.4c5.1-8.9,8.2-18.6,8.2-29C607.2,825.3,604.5,816.4,600.1,808.2z M565.1,822.7
		c2.4,4.1,3.8,8.8,3.8,13.9c0,7.4-2.9,14-7.6,19c-2,2.1-4.3,3.9-6.9,5.3c-3.8,2.1-8.3,3.2-12.9,3.2c-15.2,0-27.5-12.3-27.5-27.5
		c0-15.2,12.3-27.5,27.5-27.5c3,0,5.9,0.5,8.7,1.4C556.4,812.6,561.8,817,565.1,822.7z"/>
</g>
<path class="st122" d="M707.8,473.9c-22.7,11.7-44.2,25.4-64.3,41c-4.8,3.7-9.4,7.5-14,11.4c-9.7,8.2-19,16.8-27.9,25.9
	c-4.5,4.6-8.9,9.3-13.2,14.1c-12.5,13.9-24,28.7-34.6,44.3c-6.9-6.5-13.7-13.1-20.6-19.6c-3.4-3.2-6.7-6.4-10-9.6
	c-1.7-1.7-3.4-3.3-5.2-5c-3.4-3.2-6.7-6.4-10-9.6c-0.2-0.2-0.4-0.4-0.6-0.6c-4.9-4.7-9.8-9.4-14.7-14.1
	c-14.9-14.2-29.8-28.4-44.7-42.6c-12-11.5-24.1-22.9-36.1-34.4c-4.7-4.5-9.4-8.9-14-13.4c-2-1.9-4-3.9-6.1-5.8
	c-3.5-3.4-7-6.7-10.6-10.1c-1.6-1.5-3.2-3-4.8-4.6c-3.5-3.4-7-6.7-10.6-10.1c-1.1-1.1-2.3-2.2-3.4-3.3c-2.7-15.4-5.6-46.2,9.7-77.6
	c2.6-5.3,5.6-10.4,9-15.3c3.5-5,7.3-9.6,11.6-14.1c1.7-1.8,3.5-3.6,5.3-5.3c4.4-4.1,9-7.9,14-11.4c26.1-18.3,59.9-28.4,96.2-27.7
	c1.2,0,2.5,0.1,3.7,0.1c2,2,4.1,4.1,6.1,6.1c1.7,1.7,3.4,3.5,5.2,5.2c3.4,3.5,6.9,6.9,10.3,10.4c7.5,7.5,14.9,14.9,22.3,22.4
	c4.6,4.7,9.3,9.4,14,14.1c10.5,10.6,21,21.2,31.6,31.8c9.4,9.5,18.9,19,28.4,28.5c4.7,4.7,9.3,9.4,14,14.1
	c7.2,7.3,14.4,14.5,21.6,21.8c3.3,3.4,6.7,6.7,10,10.1c1.5,1.5,3,3,4.5,4.5c3.3,3.4,6.7,6.7,10,10.1
	C695.9,461.9,701.9,467.9,707.8,473.9z"/>
</svg>
